Coordinates
version=1
nRows=14
nColumns=40
inDegrees=yes

Units are S.I. units (second, meters, Newtons, ...)
If the header above contains a line with 'inDegrees', this indicates whether rotational values are in degrees (yes) or radians (no).

endheader
time	pelvis_tilt	pelvis_list	pelvis_rotation	pelvis_tx	pelvis_ty	pelvis_tz	hip_flexion_r	hip_adduction_r	hip_rotation_r	knee_angle_r	knee_angle_r_beta	ankle_angle_r	subtalar_angle_r	mtp_angle_r	hip_flexion_l	hip_adduction_l	hip_rotation_l	knee_angle_l	knee_angle_l_beta	ankle_angle_l	subtalar_angle_l	mtp_angle_l	lumbar_extension	lumbar_bending	lumbar_rotation	arm_flex_r	arm_add_r	arm_rot_r	elbow_flex_r	pro_sup_r	wrist_flex_r	wrist_dev_r	arm_flex_l	arm_add_l	arm_rot_l	elbow_flex_l	pro_sup_l	wrist_flex_l	wrist_dev_l
      2.75000000	    -38.10675150	      4.11774796	     -5.03251030	     -0.45213132	      0.49546182	     -0.91434797	    119.55338407	    -13.84014220	      6.65286393	    112.28638506	      1.95976712	     33.28685260	      0.00000000	      0.00000000	    117.96617990	    -29.20667888	      1.23725192	    115.71180624	      2.01955200	     27.06285113	      0.00000000	      0.00000000	    -32.58355810	     -7.28711520	     -3.01587322	    -21.69820696	    -39.99373479	     23.15090548	     94.50589254	     45.13249802	      0.00000000	      0.00000000	    -37.62572837	    -43.96329649	     -3.47635714	     69.73974436	     45.13249802	      0.00000000	      0.00000000
      2.75500000	    -38.39565482	      4.08613276	     -4.93224161	     -0.45090742	      0.49697908	     -0.91399211	    119.51470065	    -13.91326459	      6.51242675	    112.12988446	      1.95703567	     33.34549633	      0.00000000	      0.00000000	    117.87712502	    -29.11070209	      1.14919393	    115.41910560	      2.01444341	     27.06138346	      0.00000000	      0.00000000	    -32.32166002	     -7.31837919	     -3.00088064	    -21.69760205	    -39.98398022	     23.15385764	     94.50609574	     45.13196049	      0.00000000	      0.00000000	    -37.63571230	    -43.95086133	     -3.48032872	     69.74747708	     45.13196049	      0.00000000	      0.00000000
      2.76000000	    -38.63782569	      4.13586827	     -4.66800565	     -0.44970375	      0.49852593	     -0.91427256	    119.49683932	    -14.09593792	      6.65609006	    111.96772110	      1.95420539	     33.41927450	      0.00000000	      0.00000000	    117.65053616	    -28.78200495	      0.93771662	    115.13163259	      2.00942606	     27.06056431	      0.00000000	      0.00000000	    -31.67143951	     -7.32197312	     -2.99828402	    -21.70613942	    -39.95991940	     23.16109547	     94.50068839	     45.13106749	      0.00000000	      0.00000000	    -37.64728421	    -43.92775190	     -3.48602579	     69.76036446	     45.13106749	      0.00000000	      0.00000000
      2.76500000	    -38.82718040	      4.20663342	     -4.55390028	     -0.44877097	      0.49995321	     -0.91477525	    119.44260706	    -14.01053070	      6.79743688	    111.71085704	      1.94972227	     33.46953369	      0.00000000	      0.00000000	    117.45909480	    -28.49905949	      0.91933721	    115.04027657	      2.00783160	     27.06116656	      0.00000000	      0.00000000	    -31.48079821	     -7.28698735	     -3.01245007	    -21.71103304	    -39.95253366	     23.16350776	     94.49702154	     45.13076509	      0.00000000	      0.00000000	    -37.64546634	    -43.92483556	     -3.48794614	     69.76474209	     45.13076509	      0.00000000	      0.00000000
      2.77000000	    -39.08501835	      4.41798040	     -4.36438792	     -0.44727451	      0.50184071	     -0.91454114	    119.43218469	    -14.02987361	      7.12323675	    111.54903514	      1.94689794	     33.55533832	      0.00000000	      0.00000000	    117.10705828	    -28.36078274	      0.48574503	    114.68966945	      2.00171235	     27.06870097	      0.00000000	      0.00000000	    -30.42814520	     -7.45913799	     -3.17472399	    -21.74476392	    -39.90004537	     23.18095374	     94.47774752	     45.12944106	      0.00000000	      0.00000000	    -37.61699058	    -43.92051431	     -3.49636711	     69.78398544	     45.12944106	      0.00000000	      0.00000000
      2.77500000	    -39.38665924	      4.40878610	     -4.24204885	     -0.44555011	      0.50391412	     -0.91398811	    119.30982940	    -14.07574431	      7.12569266	    111.37698209	      1.94389505	     33.60949636	      0.00000000	      0.00000000	    116.92002433	    -28.24262102	      0.38881896	    114.32341665	      1.99532003	     27.07419552	      0.00000000	      0.00000000	    -29.98474977	     -7.50235213	     -3.26410369	    -21.75574140	    -39.86065995	     23.19329409	     94.46509262	     45.12876483	      0.00000000	      0.00000000	    -37.59831621	    -43.92687854	     -3.50086659	     69.79386173	     45.12876483	      0.00000000	      0.00000000
      2.78000000	    -39.64717359	      4.26814331	     -3.40646691	     -0.44406287	      0.50605800	     -0.91584497	    119.28695649	    -15.09223503	      7.30279054	    111.24393844	      1.94157300	     33.69170230	      0.00000000	      0.00000000	    116.55288624	    -27.04036721	      0.18556664	    113.89277530	      1.98780392	     27.11870495	      0.00000000	      0.00000000	    -29.17175155	     -6.77019737	     -4.12125882	    -21.78642874	    -39.61462669	     23.26268507	     94.32882120	     45.12382951	      0.00000000	      0.00000000	    -37.28834068	    -44.04530934	     -3.52399563	     69.86699008	     45.12382951	      0.00000000	      0.00000000
      2.78500000	    -39.79509778	      4.43988244	     -3.27727472	     -0.44230195	      0.50849653	     -0.91557564	    119.16170185	    -15.03997674	      7.46185275	    111.41349828	      1.94453238	     33.74266537	      0.00000000	      0.00000000	    116.07038110	    -26.90364292	     -0.11250101	    113.58358828	      1.98240759	     27.13007079	      0.00000000	      0.00000000	    -28.56532888	     -6.98021046	     -4.15534023	    -21.76034929	    -39.57525329	     23.26313861	     94.30404627	     45.12281819	      0.00000000	      0.00000000	    -37.26320362	    -44.00513855	     -3.52416598	     69.88219854	     45.12281819	      0.00000000	      0.00000000
      2.79000000	    -39.95467686	      4.67646310	     -3.08731029	     -0.44105229	      0.51060855	     -0.91589812	    119.11993191	    -15.16783489	      7.67103696	    111.11524878	      1.93932694	     33.70873326	      0.00000000	      0.00000000	    115.63303185	    -26.59568482	     -0.38060460	    113.23850775	      1.97638480	     27.13830565	      0.00000000	      0.00000000	    -28.19140264	     -7.09606027	     -4.21263044	    -21.75329583	    -39.54583207	     23.26637909	     94.28637654	     45.12215289	      0.00000000	      0.00000000	    -37.24006647	    -43.99871369	     -3.52707669	     69.89224364	     45.12215289	      0.00000000	      0.00000000
      2.79500000	    -40.15953673	      4.62379714	     -2.92372498	     -0.43887888	      0.51385273	     -0.91572697	    118.76148734	    -15.19992902	      7.75369587	    110.79954777	      1.93381692	     33.68455346	      0.00000000	      0.00000000	    115.19340777	    -26.33714542	     -0.52224823	    112.80347997	      1.96879213	     27.14582422	      0.00000000	      0.00000000	    -27.75103629	     -7.13428114	     -4.24920098	    -21.75161469	    -39.51681829	     23.27084569	     94.27080307	     45.12171525	      0.00000000	      0.00000000	    -37.22243008	    -43.98863379	     -3.52802457	     69.89887127	     45.12171525	      0.00000000	      0.00000000
      2.80000000	    -40.35474470	      5.00766256	     -2.53577547	     -0.43740229	      0.51618199	     -0.91628046	    118.79051359	    -15.46334334	      8.21606315	    110.55975986	      1.92963183	     33.71959900	      0.00000000	      0.00000000	    114.59688793	    -25.86042562	     -1.06547383	    112.45977108	      1.96279328	     27.17620169	      0.00000000	      0.00000000	    -26.68227240	     -7.42115482	     -4.58179707	    -21.74261084	    -39.41093539	     23.28772013	     94.20743476	     45.12008340	      0.00000000	      0.00000000	    -37.09155627	    -44.00229339	     -3.52996448	     69.92372063	     45.12008340	      0.00000000	      0.00000000
      2.80500000	    -40.52164559	      5.06935410	     -2.40419389	     -0.43547927	      0.51953072	     -0.91645462	    118.44122655	    -15.57561221	      8.24387950	    110.16065178	      1.92266608	     33.67762169	      0.00000000	      0.00000000	    114.05666898	    -25.55253598	     -1.18032481	    111.92682012	      1.95349153	     27.18970121	      0.00000000	      0.00000000	    -26.23009414	     -7.46680364	     -4.69178158	    -21.73400376	    -39.36634906	     23.29462753	     94.17770727	     45.11943788	      0.00000000	      0.00000000	    -37.04028777	    -44.00160606	     -3.52966790	     69.93361041	     45.11943788	      0.00000000	      0.00000000
      2.81000000	    -40.62061271	      5.16052706	     -2.27344433	     -0.43335433	      0.52228387	     -0.91642455	    118.07351136	    -15.66757275	      8.32924189	    109.85933320	      1.91740708	     33.73363910	      0.00000000	      0.00000000	    113.53070503	    -25.30875326	     -1.28462320	    111.65934381	      1.94882319	     27.19605480	      0.00000000	      0.00000000	    -25.84295667	     -7.51043844	     -4.71665339	    -21.73430415	    -39.34476925	     23.29821332	     94.16417360	     45.11916221	      0.00000000	      0.00000000	    -37.02628349	    -43.99064377	     -3.52922496	     69.93784542	     45.11916221	      0.00000000	      0.00000000
      2.81500000	    -40.63793493	      5.36627245	     -1.65736995	     -0.43103607	      0.52619468	     -0.91730792	    117.71020038	    -16.31276316	      8.68003405	    109.59864266	      1.91285717	     33.90987609	      0.00000000	      0.00000000	    112.58163017	    -24.52758614	     -1.94049928	    111.00151044	      1.93734183	     27.24242858	      0.00000000	      0.00000000	    -24.91457979	     -7.62090772	     -5.09971605	    -21.69422329	    -39.22465357	     23.31112026	     94.06573013	     45.11744378	      0.00000000	      0.00000000	    -36.82500259	    -43.99922024	     -3.52710587	     69.96437684	     45.11744378	      0.00000000	      0.00000000
